<svg width="379" height="294" viewBox="0 0 379 294" fill="none" xmlns="http://www.w3.org/2000/svg">
<g clip-path="url(#clip0_12_371)">
<path d="M168.352 66.8518C152.752 66.8639 137.26 64.258 122.52 59.1422C102.758 52.2952 86.5685 42.8511 74.4016 31.072C51.3867 8.79076 32.5179 5.43286 20.7441 6.53854C7.99902 7.73598 0.580419 14.276 0.507009 14.342L0 13.7756C0.0748902 13.7082 7.64643 7.01967 20.6239 5.78563C28.2342 5.06245 36.1926 6.32249 44.2788 9.53197C54.3626 13.5343 64.6749 20.5973 74.9292 30.5248C87.016 42.2263 103.111 51.6127 122.768 58.4229C158.853 70.9249 199.522 67.898 234.347 50.118C245.877 44.2308 257.274 40.2123 268.219 38.1743C282.02 35.6036 295.109 36.2003 307.125 39.9465C333.53 48.1783 351.565 47.7417 362.045 45.9268C373.353 43.9683 378.483 40.0486 378.534 40.0092L379 40.6098C378.788 40.7753 373.667 44.6859 362.174 46.6766C351.611 48.5063 333.447 48.9496 306.9 40.6728C280.02 32.2937 252.796 41.5524 234.692 50.7957C217.479 59.6305 198.683 64.944 179.4 66.4264C175.704 66.7099 172.022 66.8517 168.352 66.8518Z" fill="#3F3D56"/>
<path d="M166.819 76.2932C171.069 76.2932 174.514 72.841 174.514 68.5824C174.514 64.3238 171.069 60.8716 166.819 60.8716C162.57 60.8716 159.125 64.3238 159.125 68.5824C159.125 72.841 162.57 76.2932 166.819 76.2932Z" fill="#F9A826"/>
<path d="M286.03 45.477C290.28 45.477 293.725 42.0248 293.725 37.7662C293.725 33.5077 290.28 30.0554 286.03 30.0554C281.78 30.0554 278.335 33.5077 278.335 37.7662C278.335 42.0248 281.78 45.477 286.03 45.477Z" fill="#F9A826"/>
<path d="M38.1172 15.4216C42.3668 15.4216 45.8119 11.9694 45.8119 7.71081C45.8119 3.45225 42.3668 0 38.1172 0C33.8675 0 30.4225 3.45225 30.4225 7.71081C30.4225 11.9694 33.8675 15.4216 38.1172 15.4216Z" fill="#F9A826"/>
<path d="M221.999 184.32V258.822H233.689V190.88H280.448V258.822H292.137V109.818H280.448C276.574 109.818 270.628 130.035 270.628 150.349C270.628 165.661 272.413 178.784 274.95 184.32H221.999ZM280.448 184.32H280.334C280.372 184.237 280.41 184.149 280.448 184.062V184.32Z" fill="#3F3D56"/>
<path d="M265.318 72.9426C255.723 72.9426 247.944 81.5932 247.944 92.2642V105.822H252.105L254.514 100.799L253.912 105.822H280.657L282.847 101.255L282.3 105.822H285.311V95.1766C285.311 82.8971 276.36 72.9426 265.318 72.9426Z" fill="#2F2E41"/>
<path d="M245.411 161.521L234.743 166.064L197.674 196.262C196.311 197.941 195.476 199.987 195.274 202.142C195.007 205.616 183.807 223.788 187.807 226.194C191.807 228.599 206.208 235.814 207.008 231.004C207.808 226.194 212.075 205.616 212.075 205.616L247.811 173.547L245.411 161.521Z" fill="#2F2E41"/>
<path d="M203.541 226.995L199.008 240.358C199.008 240.358 203.808 245.435 201.408 249.711V264.41H197.674L196.608 256.659C196.608 256.659 192.355 264.312 190.207 264.41C185.704 264.615 176.788 266.22 176.521 263.815C176.255 261.409 183.273 259.065 183.273 259.065L190.74 238.487L193.941 225.927L203.541 226.995Z" fill="#2F2E41"/>
<path d="M273.146 158.047C273.146 158.047 275.546 181.564 268.612 185.84C261.678 190.116 231.01 203.745 231.01 203.745C231.01 203.745 244.077 216.038 241.41 218.978C238.744 221.918 226.743 229.935 225.143 228.332C223.543 226.728 205.675 207.487 207.808 201.34C209.942 195.193 239.544 175.15 239.544 175.15L243.011 162.59L244.077 152.435L255.278 145.219L273.146 158.047Z" fill="#2F2E41"/>
<path d="M260.928 103.292C267.068 103.292 272.045 98.3041 272.045 92.1512C272.045 85.9982 267.068 81.0103 260.928 81.0103C254.788 81.0103 249.81 85.9982 249.81 92.1512C249.81 98.3041 254.788 103.292 260.928 103.292Z" fill="#FFB9B9"/>
<path d="M269.546 96.7144C269.546 96.7144 269.012 106.87 277.28 110.077C285.547 113.283 256.745 134.128 256.745 134.128V110.878C256.745 110.878 260.478 106.87 256.745 100.723L269.546 96.7144Z" fill="#FFB9B9"/>
<path d="M287.28 144.417L285.147 154.84L278.746 190.65C278.746 190.65 284.08 205.883 276.88 205.616C269.679 205.349 273.146 189.047 273.146 189.047L276.88 159.383V147.891L287.28 144.417Z" fill="#FFB9B9"/>
<path d="M241.41 139.34L239.01 148.693L228.076 175.15C228.076 175.15 220.609 187.711 226.743 187.443C232.877 187.176 232.877 175.15 232.877 175.15L245.411 153.771V141.745L241.41 139.34Z" fill="#FFB9B9"/>
<path d="M239.544 217.375L248.344 225.659C248.344 225.659 254.478 224.323 256.878 231.538C259.278 238.754 260.878 243.297 260.878 243.297L257.678 245.168L253.678 239.556C253.678 239.556 251.278 249.711 248.878 250.513C246.477 251.314 234.477 256.659 235.543 250.513L241.41 241.961C241.41 241.961 242.211 232.34 239.81 231.538C237.41 230.737 231.01 222.719 231.01 222.719L239.544 217.375Z" fill="#2F2E41"/>
<path d="M273.569 166.331C273.569 166.331 248.5 157.245 246.9 158.047C245.709 158.574 244.441 158.904 243.144 159.024L243.167 155.374C243.167 155.374 251.434 152.434 255.968 154.305C260.501 156.176 274.369 164.46 274.369 164.46L273.569 166.331Z" fill="#3F3D56"/>
<path d="M258.345 128.784C258.345 128.784 265.545 120.499 267.679 115.421C269.029 112.343 271.506 109.902 274.6 108.601C274.6 108.601 290.614 112.214 290.347 118.628C290.08 125.042 280.213 134.93 280.213 134.93C280.213 134.93 281.547 170.474 274.346 169.939C272.793 168.082 271.697 165.885 271.146 163.525C270.346 159.784 245.544 155.775 245.544 155.775C245.544 155.775 243.411 159.517 243.144 157.913C242.877 156.31 245.277 117.025 245.277 117.025L257.995 108.601L258.345 128.784Z" fill="#D0CDE1"/>
<path d="M288.293 116.047L288.471 116.147C289.041 116.468 289.516 116.934 289.846 117.5C290.176 118.065 290.35 118.708 290.35 119.363L290.347 139.196C290.349 139.735 290.468 140.267 290.696 140.755C290.924 141.244 291.255 141.677 291.666 142.024C292.694 142.9 293.646 144.161 291.68 144.818C288.48 145.887 275.946 151.232 275.679 149.361C275.413 147.491 274.879 145.353 275.679 145.353C276.306 145.353 280.038 126.189 283.036 117.996C283.219 117.494 283.509 117.038 283.885 116.66C284.261 116.281 284.715 115.989 285.215 115.804C285.715 115.619 286.249 115.544 286.781 115.586C287.312 115.628 287.828 115.785 288.293 116.047Z" fill="#D0CDE1"/>
<path d="M248.878 116.089L245.144 117.158L240.877 135.598C240.877 135.598 235.81 136.667 237.41 138.538C239.01 140.408 245.677 145.219 245.677 145.219L248.878 116.089Z" fill="#D0CDE1"/>
<path d="M270.257 78.2651C269.421 77.1401 268.338 76.2232 267.091 75.5856C265.844 74.948 264.467 74.6069 263.068 74.5886H262.727C256.15 74.5886 250.819 80.5522 250.819 87.9086L253.022 87.9087L253.378 85.1941L253.9 87.9087H266.97L268.065 85.6121L267.791 87.9087H270.362C271.562 93.8797 269.838 99.8508 265.19 105.822H269.57L271.76 101.229L271.213 105.822H279.562L281.205 95.2576C281.205 87.346 276.617 80.6371 270.257 78.2651Z" fill="#2F2E41"/>
<path d="M46.9003 201.534C49.7059 195.413 51.6789 180.903 51.6789 163.973C51.6789 141.512 45.105 119.16 40.8221 119.16H27.8972V283.908H40.8221V208.787H92.5215V283.908H105.446V201.534H46.9003ZM40.822 201.249C40.8639 201.345 40.9055 201.442 40.9478 201.534H40.822V201.249Z" fill="#3F3D56"/>
<path d="M100.772 171.479C100.772 171.479 116.338 177.946 111.403 181.751C106.467 185.555 96.2165 177.185 96.5961 176.044C96.9758 174.903 95.0775 172.24 95.0775 172.24L100.772 171.479Z" fill="#9F616A"/>
<path d="M87.1048 120.499L92.0403 125.064L93.1792 138.38L96.9758 152.456C96.9758 152.456 103.43 165.772 102.291 168.435C101.152 171.098 103.43 171.859 103.43 171.859L94.6978 175.283C94.6978 175.283 85.2065 164.63 85.2065 162.348C85.2065 160.065 87.1048 120.499 87.1048 120.499Z" fill="#575A88"/>
<path opacity="0.1" d="M87.1048 120.499L92.0403 125.064L93.1792 138.38L96.9758 152.456C96.9758 152.456 103.43 165.772 102.291 168.435C101.152 171.098 103.43 171.859 103.43 171.859L94.6978 175.283C94.6978 175.283 85.2065 164.63 85.2065 162.348C85.2065 160.065 87.1048 120.499 87.1048 120.499Z" fill="black"/>
<path d="M133.802 257.46C133.802 257.46 131.904 266.21 131.524 266.971C131.145 267.732 138.738 270.395 138.738 270.395L147.849 263.928C147.849 263.928 144.053 255.558 144.053 254.036L133.802 257.46Z" fill="#575A88"/>
<path d="M84.0676 172.24L86.7252 175.283C86.7252 175.283 141.775 182.131 142.914 192.784C144.053 203.436 152.025 253.655 147.47 255.177C142.914 256.699 131.144 262.406 131.144 259.362C131.144 256.318 123.551 214.469 125.07 206.86C125.07 206.86 59.3902 198.49 57.8716 188.979C56.353 179.468 59.3902 175.283 59.3902 175.283L84.0676 172.24Z" fill="#2F2E41"/>
<path opacity="0.1" d="M84.0676 172.24L86.7252 175.283C86.7252 175.283 141.775 182.131 142.914 192.784C144.053 203.436 152.025 253.655 147.47 255.177C142.914 256.699 131.144 262.406 131.144 259.362C131.144 256.318 123.551 214.469 125.07 206.86C125.07 206.86 59.3902 198.49 57.8716 188.979C56.353 179.468 59.3902 175.283 59.3902 175.283L84.0676 172.24Z" fill="black"/>
<path d="M133.043 266.21C133.043 266.21 131.524 262.786 130.765 263.927C130.006 265.069 127.348 278.385 130.006 278.385C132.663 278.385 156.961 284.472 160.378 283.711C163.795 282.95 170.249 284.091 169.489 280.287C168.73 276.482 164.934 276.102 164.934 276.102C164.934 276.102 150.886 267.732 150.127 263.547C149.368 259.362 145.192 261.645 145.192 261.645V264.308C145.192 264.308 137.219 270.395 133.043 266.21Z" fill="#2F2E41"/>
<path d="M60.9089 91.5845C60.9089 91.5845 63.5664 104.52 57.8717 105.661C52.1769 106.802 65.0851 114.411 65.0851 114.411L73.4374 118.977L79.5118 112.89C79.5118 112.89 74.0069 101.666 78.1831 93.2965C82.3592 84.9266 60.9089 91.5845 60.9089 91.5845Z" fill="#9F616A"/>
<path d="M79.5118 112.89L73.4374 118.977L65.0851 114.411C65.0851 114.411 52.1769 106.802 57.8717 105.661C61.5353 104.927 61.7403 99.3114 61.4252 95.4004C61.3224 94.12 61.15 92.8461 60.9089 91.5845C60.9089 91.5845 82.3592 84.9266 78.1831 93.2965C77.5485 94.589 77.1084 95.9685 76.8771 97.3901C75.5976 104.912 79.5118 112.89 79.5118 112.89Z" fill="#9F616A"/>
<path d="M100.772 268.493V277.243H115.199L116.338 273.819L114.819 264.688L100.772 268.493Z" fill="#575A88"/>
<path d="M41.1669 179.849C41.1669 179.849 41.1669 202.295 50.2785 203.056C59.3902 203.817 92.0403 208.002 92.0403 208.002C92.0403 208.002 93.9385 245.286 97.3554 257.46C100.772 269.634 97.735 270.395 100.772 271.156C103.809 271.917 116.718 269.254 116.338 266.591C115.958 263.928 114.44 196.588 114.44 196.588C114.44 196.588 117.857 182.131 72.2983 175.283L41.1669 179.849Z" fill="#2F2E41"/>
<path d="M101.911 274.58C101.911 274.58 99.6334 269.634 99.2537 271.156C98.8741 272.678 94.3182 285.994 98.8741 287.135C103.43 288.276 117.857 294.363 127.348 293.983C136.839 293.603 137.978 293.222 137.978 293.222C137.978 293.222 140.636 289.418 137.219 287.135C133.802 284.852 119.755 271.537 118.996 270.015C118.236 268.493 112.542 267.352 112.542 270.015C112.542 272.678 104.569 278.004 101.911 274.58Z" fill="#2F2E41"/>
<path opacity="0.1" d="M78.183 93.2965C77.5485 94.589 77.1084 95.9685 76.877 97.3901C74.9863 98.5353 73.7221 98.2423 71.3492 98.2423C67.8299 98.2423 66.41 93.734 64.1359 91.3943C63.9574 89.2219 60.9088 91.5845 60.9088 91.5845C60.9088 91.5845 82.3592 84.9266 78.183 93.2965Z" fill="black"/>
<path d="M70.4001 98.0522C77.3194 98.0522 82.9286 92.4312 82.9286 85.4974C82.9286 78.5636 77.3194 72.9426 70.4001 72.9426C63.4808 72.9426 57.8716 78.5636 57.8716 85.4974C57.8716 92.4312 63.4808 98.0522 70.4001 98.0522Z" fill="#9F616A"/>
<path d="M92.0403 125.064C92.0403 125.064 90.142 138.76 89.0031 143.706C87.8641 148.652 86.3455 171.479 85.5862 174.522C84.8269 177.566 80.2711 178.327 71.1594 177.185C70.5874 177.113 70.0121 177.07 69.4358 177.056C63.8245 176.877 57.4046 178.981 51.4631 180.632C48.0462 181.583 44.785 182.382 41.9262 182.512C37.5982 182.709 36.3301 177.901 36.4782 172.696C36.6187 167.853 37.9892 162.66 39.2686 160.826C41.5731 157.524 39.3066 127.875 40.157 118.098V118.094C40.2861 116.603 40.4873 115.576 40.7872 115.172C43.0651 112.129 57.8716 104.52 59.5307 104.828C61.1859 105.136 75.3356 114.031 75.3356 114.031C78.7524 114.031 78.6423 110.318 78.6423 110.318C78.6423 110.318 81.0304 114.792 85.5862 115.933C90.142 117.075 92.0403 125.064 92.0403 125.064Z" fill="#575A88"/>
<path d="M66.6616 174.386C66.6616 174.386 91.1172 175.167 86.8331 178.078C82.549 180.99 63.5664 183.653 63.1867 179.848C62.8071 176.044 66.6616 174.386 66.6616 174.386Z" fill="#9F616A"/>
<path opacity="0.1" d="M69.4358 177.056C69.5155 178.517 65.5937 181.808 64.3256 184.033C63.6233 185.266 58.1867 183.642 51.463 180.632C46.3034 178.311 41.2981 175.661 36.4781 172.696C36.6186 167.853 37.9892 162.66 39.2686 160.826C41.5731 157.524 39.3066 127.875 40.157 118.098V118.094C40.3598 117.991 40.5705 117.904 40.7872 117.835H45.343C60.9088 125.064 43.0651 156.261 43.0651 156.261C43.0651 156.261 66.6035 175.664 68.8815 176.424C69.0308 176.453 69.1665 176.53 69.2669 176.645C69.3673 176.759 69.4268 176.904 69.4358 177.056Z" fill="black"/>
<path d="M45.3431 115.553H40.7873C40.7873 115.553 36.6111 116.694 33.1943 124.303C29.7774 131.912 17.2489 155.5 28.2588 164.631C39.2687 173.761 62.8071 184.414 64.3257 181.751C65.8443 179.088 71.1595 174.903 68.8816 174.142C66.6036 173.381 43.0652 153.978 43.0652 153.978C43.0652 153.978 60.9089 122.781 45.3431 115.553Z" fill="#575A88"/>
<path d="M68.4727 79.6553C68.4727 79.6553 69.0225 72.0283 75.8052 75.1382C82.588 78.2481 82.1454 69.6762 80.0957 68.1615C78.046 66.6467 78.1109 66.2719 70.6143 67.2854C63.1177 68.2988 48.5634 70.0159 53.2695 85.1209C57.9755 100.226 62.2376 96.3402 62.2376 96.3402C62.2376 96.3402 58.4969 82.7476 62.2871 85.3372L66.0773 87.9269L68.0775 87.5023L68.4727 79.6553Z" fill="#2F2E41"/>
<path d="M348.344 189.481C348.344 182.614 297.422 177.047 234.606 177.047C171.79 177.047 120.867 182.614 120.867 189.481C120.867 192.142 128.52 194.608 141.547 196.631V281.699H147.751V197.508C168.614 200.203 199.779 201.915 234.606 201.915C269.72 201.915 301.114 200.175 321.978 197.441V281.699H328.182V196.549C340.892 194.542 348.344 192.107 348.344 189.481Z" fill="#3F3D56"/>
<path d="M248.855 189.74C261.645 189.74 272.014 187.185 272.014 184.033C272.014 180.882 261.645 178.327 248.855 178.327C236.065 178.327 225.696 180.882 225.696 184.033C225.696 187.185 236.065 189.74 248.855 189.74Z" fill="#F2F2F2"/>
<path d="M248.855 188.711C259.339 188.711 267.837 186.617 267.837 184.033C267.837 181.45 259.339 179.356 248.855 179.356C238.371 179.356 229.872 181.45 229.872 184.033C229.872 186.617 238.371 188.711 248.855 188.711Z" fill="#D0CDE1"/>
<path d="M162.674 194.306C175.464 194.306 185.833 191.751 185.833 188.599C185.833 185.447 175.464 182.892 162.674 182.892C149.884 182.892 139.515 185.447 139.515 188.599C139.515 191.751 149.884 194.306 162.674 194.306Z" fill="#F2F2F2"/>
<path d="M162.674 193.276C173.158 193.276 181.656 191.182 181.656 188.599C181.656 186.015 173.158 183.921 162.674 183.921C152.19 183.921 143.691 186.015 143.691 188.599C143.691 191.182 152.19 193.276 162.674 193.276Z" fill="#D0CDE1"/>
<path d="M248.316 183.63C254.413 183.63 259.356 182.848 259.356 181.884C259.356 180.919 254.413 180.137 248.316 180.137C242.218 180.137 237.275 180.919 237.275 181.884C237.275 182.848 242.218 183.63 248.316 183.63Z" fill="#9F616A"/>
<path d="M242.433 181.229C244.358 181.229 245.919 180.381 245.919 179.336C245.919 178.291 244.358 177.444 242.433 177.444C240.507 177.444 238.946 178.291 238.946 179.336C238.946 180.381 240.507 181.229 242.433 181.229Z" fill="#F9A826"/>
<path d="M241.125 181.229C243.051 181.229 244.611 180.381 244.611 179.336C244.611 178.291 243.051 177.444 241.125 177.444C239.199 177.444 237.639 178.291 237.639 179.336C237.639 180.381 239.199 181.229 241.125 181.229Z" fill="#F9A826"/>
<path d="M256.378 181.665C258.304 181.665 259.865 180.818 259.865 179.773C259.865 178.728 258.304 177.88 256.378 177.88C254.453 177.88 252.892 178.728 252.892 179.773C252.892 180.818 254.453 181.665 256.378 181.665Z" fill="#F9A826"/>
<path d="M248.389 181.229C250.314 181.229 251.875 180.381 251.875 179.336C251.875 178.291 250.314 177.444 248.389 177.444C246.463 177.444 244.902 178.291 244.902 179.336C244.902 180.381 246.463 181.229 248.389 181.229Z" fill="#F9A826"/>
<path d="M254.344 181.229C256.27 181.229 257.831 180.381 257.831 179.336C257.831 178.291 256.27 177.444 254.344 177.444C252.419 177.444 250.858 178.291 250.858 179.336C250.858 180.381 252.419 181.229 254.344 181.229Z" fill="#F9A826"/>
<path d="M258.848 178.172C252.547 180.314 245.477 180.314 237.639 178.172V177.877C237.637 175.649 238.49 173.506 240.022 171.891C241.553 170.276 243.645 169.313 245.865 169.201C247.734 169.107 249.606 169.109 251.475 169.208C253.472 169.325 255.349 170.203 256.72 171.663C258.091 173.123 258.853 175.054 258.848 177.059V178.172Z" fill="#3F3D56"/>
<path d="M255.754 186.194C251.098 186.665 246.406 186.665 241.749 186.194C240.644 186.085 239.619 185.569 238.873 184.746C238.127 183.922 237.713 182.85 237.711 181.738H259.792C259.79 182.85 259.376 183.922 258.63 184.746C257.884 185.569 256.859 186.085 255.754 186.194Z" fill="#3F3D56"/>
<path d="M245.338 171.912C244.832 172.123 244.288 172.232 243.74 172.232C243.191 172.232 242.648 172.123 242.142 171.912C242.648 171.7 243.191 171.592 243.74 171.592C244.288 171.592 244.832 171.7 245.338 171.912Z" fill="#D0CDE1"/>
<path d="M248.534 173.222C248.027 173.434 247.484 173.542 246.936 173.542C246.387 173.542 245.844 173.434 245.338 173.222C245.844 173.011 246.387 172.902 246.936 172.902C247.484 172.902 248.027 173.011 248.534 173.222Z" fill="#D0CDE1"/>
<path d="M248.824 170.893C248.318 171.104 247.775 171.213 247.226 171.213C246.678 171.213 246.135 171.104 245.628 170.893C246.135 170.681 246.678 170.573 247.226 170.573C247.775 170.573 248.318 170.681 248.824 170.893Z" fill="#D0CDE1"/>
<path d="M254.78 170.893C254.274 171.104 253.731 171.213 253.182 171.213C252.634 171.213 252.091 171.104 251.584 170.893C252.091 170.681 252.634 170.573 253.182 170.573C253.731 170.573 254.274 170.681 254.78 170.893Z" fill="#D0CDE1"/>
<path d="M253.182 172.203C252.676 172.414 252.133 172.523 251.584 172.523C251.036 172.523 250.493 172.414 249.986 172.203C250.493 171.992 251.036 171.883 251.584 171.883C252.133 171.883 252.676 171.992 253.182 172.203Z" fill="#D0CDE1"/>
<path d="M162.514 188.196C168.612 188.196 173.555 187.414 173.555 186.449C173.555 185.484 168.612 184.702 162.514 184.702C156.417 184.702 151.474 185.484 151.474 186.449C151.474 187.414 156.417 188.196 162.514 188.196Z" fill="#9F616A"/>
<path d="M156.631 185.794C158.557 185.794 160.118 184.947 160.118 183.901C160.118 182.856 158.557 182.009 156.631 182.009C154.706 182.009 153.145 182.856 153.145 183.901C153.145 184.947 154.706 185.794 156.631 185.794Z" fill="#F9A826"/>
<path d="M155.324 185.794C157.249 185.794 158.81 184.947 158.81 183.901C158.81 182.856 157.249 182.009 155.324 182.009C153.398 182.009 151.837 182.856 151.837 183.901C151.837 184.947 153.398 185.794 155.324 185.794Z" fill="#F9A826"/>
<path d="M170.577 186.231C172.502 186.231 174.063 185.383 174.063 184.338C174.063 183.293 172.502 182.446 170.577 182.446C168.651 182.446 167.09 183.293 167.09 184.338C167.09 185.383 168.651 186.231 170.577 186.231Z" fill="#F9A826"/>
<path d="M162.587 185.794C164.513 185.794 166.073 184.947 166.073 183.901C166.073 182.856 164.513 182.009 162.587 182.009C160.662 182.009 159.101 182.856 159.101 183.901C159.101 184.947 160.662 185.794 162.587 185.794Z" fill="#F9A826"/>
<path d="M168.543 185.794C170.469 185.794 172.03 184.947 172.03 183.901C172.03 182.856 170.469 182.009 168.543 182.009C166.618 182.009 165.057 182.856 165.057 183.901C165.057 184.947 166.618 185.794 168.543 185.794Z" fill="#F9A826"/>
<path d="M173.046 182.737C166.745 184.88 159.676 184.88 151.837 182.737V182.442C151.836 180.214 152.689 178.071 154.22 176.457C155.752 174.842 157.844 173.878 160.064 173.766C161.933 173.672 163.805 173.674 165.673 173.773C167.671 173.89 169.548 174.769 170.919 176.229C172.29 177.689 173.051 179.62 173.046 181.625V182.737Z" fill="#3F3D56"/>
<path d="M169.953 190.759C165.296 191.23 160.604 191.23 155.948 190.759C154.843 190.65 153.818 190.134 153.072 189.311C152.326 188.488 151.912 187.416 151.91 186.303H173.991C173.989 187.416 173.575 188.488 172.829 189.311C172.082 190.134 171.058 190.65 169.953 190.759Z" fill="#3F3D56"/>
<path d="M159.536 176.477C159.03 176.689 158.487 176.798 157.939 176.798C157.39 176.798 156.847 176.689 156.341 176.477C156.847 176.266 157.39 176.157 157.939 176.157C158.487 176.157 159.03 176.266 159.536 176.477Z" fill="#D0CDE1"/>
<path d="M162.732 177.787C162.226 177.999 161.683 178.108 161.134 178.108C160.586 178.108 160.043 177.999 159.536 177.787C160.043 177.576 160.586 177.467 161.134 177.467C161.683 177.467 162.226 177.576 162.732 177.787Z" fill="#D0CDE1"/>
<path d="M163.023 175.458C162.517 175.67 161.974 175.778 161.425 175.778C160.876 175.778 160.333 175.67 159.827 175.458C160.333 175.247 160.876 175.138 161.425 175.138C161.974 175.138 162.517 175.247 163.023 175.458Z" fill="#D0CDE1"/>
<path d="M168.979 175.458C168.473 175.67 167.929 175.778 167.381 175.778C166.832 175.778 166.289 175.67 165.783 175.458C166.289 175.247 166.832 175.138 167.381 175.138C167.929 175.138 168.473 175.247 168.979 175.458Z" fill="#D0CDE1"/>
<path d="M167.381 176.769C166.875 176.98 166.332 177.089 165.783 177.089C165.234 177.089 164.691 176.98 164.185 176.769C164.691 176.557 165.234 176.448 165.783 176.448C166.332 176.448 166.875 176.557 167.381 176.769Z" fill="#D0CDE1"/>
<path d="M268.778 182.487L268.831 183.665L268.899 185.194C268.899 185.194 261.894 185.591 260.483 187.085C260.45 187.117 260.42 187.152 260.393 187.189L257.587 186.573L257.58 185.188C257.58 185.188 257.619 185.166 257.694 185.126C257.711 185.117 257.733 185.105 257.754 185.094C261.188 183.409 264.955 182.518 268.778 182.487Z" fill="#F9A826"/>
<path opacity="0.1" d="M268.778 182.487L268.831 183.665C265.725 183.762 259.846 185.617 259.846 185.617L257.694 185.126C261.142 183.419 264.932 182.517 268.778 182.487Z" fill="black"/>
<path opacity="0.1" d="M257.754 185.094L259.846 185.617L260.483 187.085C260.45 187.117 260.42 187.152 260.393 187.189L257.587 186.573L257.58 185.188C257.58 185.188 257.619 185.166 257.694 185.126C257.711 185.117 257.732 185.105 257.754 185.094Z" fill="white"/>
<path d="M184.115 187.433L184.169 188.612L184.237 190.14C184.237 190.14 177.232 190.537 175.82 192.031C175.788 192.063 175.758 192.098 175.73 192.135L172.924 191.519L172.917 190.134C172.917 190.134 172.956 190.112 173.031 190.072C173.049 190.063 173.07 190.051 173.092 190.04C176.525 188.355 180.292 187.464 184.115 187.433Z" fill="#F9A826"/>
<path opacity="0.1" d="M184.115 187.433L184.169 188.612C181.062 188.708 175.183 190.563 175.183 190.563L173.031 190.072C176.48 188.365 180.269 187.463 184.115 187.433Z" fill="black"/>
<path opacity="0.1" d="M173.092 190.04L175.184 190.563L175.82 192.031C175.788 192.063 175.758 192.098 175.73 192.135L172.924 191.519L172.917 190.134C172.917 190.134 172.956 190.112 173.031 190.072C173.049 190.063 173.07 190.051 173.092 190.04Z" fill="white"/>
<path d="M310.968 147.189C310.37 146.591 309.67 146.106 308.9 145.757V130.974C308.9 130.801 308.831 130.635 308.709 130.512C308.586 130.39 308.421 130.321 308.248 130.321H304.596C304.423 130.321 304.257 130.39 304.135 130.512C304.012 130.635 303.944 130.801 303.944 130.974V145.474C302.623 145.912 301.475 146.757 300.66 147.887C299.846 149.016 299.408 150.375 299.407 151.768V183.48C299.407 183.861 299.482 184.239 299.628 184.592C299.774 184.944 299.987 185.264 300.257 185.534C300.526 185.804 300.846 186.018 301.197 186.164C301.549 186.31 301.926 186.385 302.307 186.385H310.13C310.895 186.385 311.629 186.081 312.171 185.538C312.712 184.996 313.016 184.26 313.016 183.493V152.142C313.017 151.222 312.837 150.311 312.485 149.461C312.134 148.611 311.618 147.839 310.968 147.189Z" fill="#3F3D56"/>
<path d="M313.016 156.417H299.407V174.432H313.016V156.417Z" fill="#F9A826"/>
<path d="M309.194 131.331H308.9V130.974C308.9 130.801 308.831 130.635 308.709 130.512C308.586 130.39 308.421 130.321 308.248 130.321H304.596C304.423 130.321 304.257 130.39 304.134 130.512C304.012 130.635 303.943 130.801 303.943 130.974V131.331H303.649V132.846H303.943V140.591H308.9V132.846H309.194V131.331Z" fill="#F9A826"/>
<path d="M202.004 160.02C201.643 159.25 201.359 158.705 201.26 158.518C195.151 160.028 191.075 158.752 190.433 158.526C190.118 159.121 188.156 162.923 187.363 166.568C186.647 169.856 187.062 172.06 188.599 173.119L188.644 173.152L188.654 173.159C190.351 174.279 191.969 175.27 193.463 176.106C193.664 176.219 193.854 176.323 194.033 176.42L194.052 176.43L194.065 176.447C194.27 176.706 194.461 176.976 194.637 177.256C194.968 177.719 195.168 178.262 195.218 178.828V195.159L195.115 195.161C191.218 195.24 188.806 195.902 188.806 196.47C188.806 197.093 191.698 197.786 195.848 197.786C199.998 197.786 202.89 197.093 202.89 196.47C202.89 195.911 200.519 195.253 196.689 195.164L196.585 195.161L196.682 180.056C196.684 179.033 196.921 178.024 197.375 177.108C197.452 176.954 197.536 176.805 197.622 176.663C197.692 176.55 197.765 176.439 197.841 176.335L197.855 176.315L197.876 176.304C198.068 176.199 198.271 176.085 198.487 175.963L198.512 175.949C199.927 175.148 201.451 174.21 203.042 173.158C204.464 172.219 204.958 170.322 204.513 167.518C204.089 164.845 202.914 161.965 202.004 160.02Z" fill="#D0CDE1"/>
<path d="M202.368 172.816C200.7 173.918 199.322 174.745 198.268 175.341H198.267C196.73 175.235 195.186 175.279 193.658 175.47C192.578 174.866 191.12 174 189.328 172.816C189.311 172.805 189.294 172.793 189.277 172.781V172.78C187.633 171.646 187.592 169.246 188.127 166.791C189.487 166.64 191.657 166.706 194.572 167.75C198.024 168.986 201.638 168.287 203.732 167.651C204.076 169.817 203.866 171.826 202.368 172.816Z" fill="#F9A826"/>
<path d="M192.446 165.903C192.707 165.903 192.919 165.691 192.919 165.43C192.919 165.168 192.707 164.956 192.446 164.956C192.185 164.956 191.974 165.168 191.974 165.43C191.974 165.691 192.185 165.903 192.446 165.903Z" fill="#F9A826"/>
<path d="M191.123 170.259C191.384 170.259 191.596 170.047 191.596 169.786C191.596 169.524 191.384 169.312 191.123 169.312C190.862 169.312 190.651 169.524 190.651 169.786C190.651 170.047 190.862 170.259 191.123 170.259Z" fill="white"/>
<path d="M193.58 166.85C193.737 166.85 193.864 166.723 193.864 166.566C193.864 166.409 193.737 166.282 193.58 166.282C193.424 166.282 193.297 166.409 193.297 166.566C193.297 166.723 193.424 166.85 193.58 166.85Z" fill="#F9A826"/>
<path d="M194.714 172.248C194.871 172.248 194.998 172.121 194.998 171.964C194.998 171.807 194.871 171.68 194.714 171.68C194.558 171.68 194.431 171.807 194.431 171.964C194.431 172.121 194.558 172.248 194.714 172.248Z" fill="white"/>
<path d="M192.73 172.532C192.886 172.532 193.013 172.405 193.013 172.248C193.013 172.091 192.886 171.964 192.73 171.964C192.573 171.964 192.446 172.091 192.446 172.248C192.446 172.405 192.573 172.532 192.73 172.532Z" fill="white"/>
<path d="M198.494 163.062C198.651 163.062 198.778 162.935 198.778 162.778C198.778 162.621 198.651 162.494 198.494 162.494C198.337 162.494 198.211 162.621 198.211 162.778C198.211 162.935 198.337 163.062 198.494 163.062Z" fill="#F9A826"/>
<path d="M224.167 144.625C223.807 143.855 223.523 143.31 223.423 143.123C217.314 144.633 213.239 143.357 212.596 143.131C212.282 143.726 210.319 147.528 209.526 151.173C208.81 154.461 209.226 156.665 210.762 157.724L210.808 157.757L210.818 157.764C212.514 158.884 214.132 159.875 215.627 160.711C215.828 160.824 216.018 160.928 216.196 161.025L216.215 161.035L216.229 161.052C216.434 161.311 216.625 161.581 216.801 161.861C217.131 162.324 217.331 162.867 217.381 163.433V179.764L217.278 179.766C213.382 179.845 210.97 180.507 210.97 181.075C210.97 181.698 213.862 182.391 218.012 182.391C222.162 182.391 225.054 181.698 225.054 181.075C225.054 180.516 222.683 179.858 218.852 179.769L218.749 179.766L218.845 164.661C218.847 163.638 219.085 162.629 219.539 161.713C219.616 161.559 219.699 161.41 219.786 161.268C219.855 161.155 219.929 161.044 220.004 160.94L220.018 160.92L220.039 160.909C220.231 160.804 220.435 160.69 220.65 160.568L220.676 160.554C222.09 159.753 223.614 158.815 225.206 157.763C226.627 156.824 227.122 154.927 226.677 152.123C226.252 149.45 225.078 146.57 224.167 144.625Z" fill="#D0CDE1"/>
<path d="M224.532 157.421C222.863 158.523 221.485 159.35 220.432 159.945H220.431C218.894 159.84 217.35 159.884 215.821 160.075C214.741 159.471 213.284 158.604 211.491 157.421C211.474 157.409 211.457 157.398 211.44 157.386V157.385C209.796 156.251 209.755 153.851 210.29 151.396C211.651 151.245 213.821 151.311 216.736 152.354C220.188 153.59 223.802 152.891 225.896 152.256C226.24 154.422 226.03 156.431 224.532 157.421Z" fill="#F9A826"/>
<path d="M214.61 150.508C214.871 150.508 215.082 150.296 215.082 150.035C215.082 149.773 214.871 149.561 214.61 149.561C214.349 149.561 214.137 149.773 214.137 150.035C214.137 150.296 214.349 150.508 214.61 150.508Z" fill="#F9A826"/>
<path d="M213.287 154.864C213.548 154.864 213.759 154.652 213.759 154.39C213.759 154.129 213.548 153.917 213.287 153.917C213.026 153.917 212.814 154.129 212.814 154.39C212.814 154.652 213.026 154.864 213.287 154.864Z" fill="white"/>
<path d="M215.744 151.455C215.9 151.455 216.027 151.328 216.027 151.171C216.027 151.014 215.9 150.887 215.744 150.887C215.587 150.887 215.46 151.014 215.46 151.171C215.46 151.328 215.587 151.455 215.744 151.455Z" fill="#F9A826"/>
<path d="M216.878 156.853C217.034 156.853 217.161 156.725 217.161 156.569C217.161 156.412 217.034 156.284 216.878 156.284C216.721 156.284 216.594 156.412 216.594 156.569C216.594 156.725 216.721 156.853 216.878 156.853Z" fill="white"/>
<path d="M214.893 157.137C215.05 157.137 215.177 157.01 215.177 156.853C215.177 156.696 215.05 156.569 214.893 156.569C214.737 156.569 214.61 156.696 214.61 156.853C214.61 157.01 214.737 157.137 214.893 157.137Z" fill="white"/>
<path d="M220.658 147.667C220.814 147.667 220.941 147.54 220.941 147.383C220.941 147.226 220.814 147.099 220.658 147.099C220.501 147.099 220.374 147.226 220.374 147.383C220.374 147.54 220.501 147.667 220.658 147.667Z" fill="#F9A826"/>
</g>
<defs>
<clipPath id="clip0_12_371">
<rect width="379" height="294" fill="white"/>
</clipPath>
</defs>
</svg>
