<svg width="379" height="318" viewBox="0 0 379 318" fill="none" xmlns="http://www.w3.org/2000/svg">
<g clip-path="url(#clip0_12_109)">
<path d="M246.717 314.444L175.72 186.385C175.699 186.072 175.603 185.768 175.437 185.501C175.272 185.234 175.043 185.012 174.772 184.854C174.461 184.676 174.105 184.59 173.746 184.606C173.735 184.606 173.723 184.606 173.712 184.606C173.7 184.606 173.689 184.606 173.677 184.606C173.191 184.584 172.716 184.75 172.35 185.07C171.983 185.39 171.755 185.839 171.712 186.324L96.4652 314.444C96.3397 314.661 96.2582 314.901 96.2254 315.15C96.1926 315.398 96.2091 315.651 96.2739 315.893C96.3387 316.136 96.4506 316.363 96.6032 316.562C96.7558 316.761 96.946 316.928 97.1631 317.053C97.3802 317.179 97.6199 317.26 97.8685 317.293C98.117 317.325 98.3696 317.309 98.6117 317.244C98.8539 317.179 99.0808 317.067 99.2797 316.914C99.4785 316.761 99.6453 316.571 99.7705 316.353L173.661 190.543L243.412 316.353C243.537 316.571 243.704 316.761 243.903 316.914C244.102 317.067 244.329 317.179 244.571 317.244C244.813 317.309 245.066 317.325 245.314 317.293C245.563 317.26 245.802 317.179 246.019 317.053C246.237 316.928 246.427 316.761 246.579 316.562C246.732 316.363 246.844 316.136 246.909 315.893C246.974 315.651 246.99 315.398 246.957 315.15C246.924 314.901 246.843 314.661 246.717 314.444Z" fill="#3F3D56"/>
<path d="M161.947 292.473L169.972 290.631L166.689 258.788L154.845 261.506L161.947 292.473Z" fill="#FFB6B6"/>
<path d="M168.152 277.09L156.731 279.711L153.08 272.572L152.873 272.319C151.253 270.33 150.354 267.85 150.322 265.285L140.83 240.166L140.054 239.796C139.453 239.511 138.921 239.1 138.491 238.592C138.062 238.084 137.746 237.49 137.565 236.85C137.383 236.21 137.34 235.539 137.439 234.881C137.537 234.223 137.775 233.594 138.136 233.035L137.131 230.376L108.775 230.428L108.747 230.42L73.9268 220.649L77.5829 198.845L87.3777 205.009C90.6052 204.8 145.894 201.404 151.001 213.799C155.55 224.838 162.104 243.696 166.801 257.573C167.036 258.196 167.327 258.796 167.671 259.365C168.402 260.491 168.831 261.786 168.917 263.126C168.972 263.709 169.083 264.285 169.248 264.847C171.201 270.686 168.226 276.936 168.196 276.999L168.152 277.09Z" fill="#2F2E41"/>
<path d="M159.236 289.81L161.845 289.211L171.082 282.729L177.492 285.62L177.492 285.62C180.578 284.912 183.818 285.459 186.5 287.141C189.182 288.823 191.087 291.502 191.795 294.588L191.882 294.967L161.992 301.827L159.236 289.81Z" fill="#2F2E41"/>
<path d="M40.7486 290.525C41.5645 281.641 46.7665 272.746 55.11 269.595C52.0755 278.81 52.3971 288.802 56.0177 297.803C57.4266 301.269 59.3545 304.978 58.2486 308.552C57.5606 310.776 55.7587 312.519 53.718 313.638C51.6771 314.757 49.3907 315.333 47.1328 315.897L46.6973 316.282C42.8261 308.244 39.9327 299.41 40.7486 290.525Z" fill="#F0F0F0"/>
<path d="M55.1992 269.759C50.4633 275.424 47.632 282.438 47.1073 289.804C46.9662 291.388 47.0756 292.984 47.4313 294.533C47.8266 296.032 48.6157 297.397 49.7168 298.487C50.723 299.524 51.8722 300.468 52.6089 301.732C52.9764 302.384 53.2019 303.107 53.2706 303.853C53.3393 304.599 53.2496 305.351 53.0075 306.059C52.4501 307.841 51.2861 309.316 50.0977 310.718C48.7782 312.276 47.383 313.872 46.8659 315.897C46.8033 316.143 46.4264 316.031 46.4889 315.786C47.3886 312.263 50.7122 310.171 52.2266 306.975C52.9333 305.484 53.195 303.77 52.4386 302.244C51.7772 300.91 50.5929 299.935 49.565 298.894C48.4754 297.846 47.6587 296.548 47.1863 295.111C46.7529 293.585 46.5823 291.996 46.6818 290.412C46.849 286.842 47.5761 283.322 48.8366 279.978C50.254 276.155 52.3147 272.602 54.9297 269.473C55.0917 269.279 55.36 269.567 55.1992 269.759Z" fill="white"/>
<path d="M47.1367 287.422C45.9132 287.166 44.8206 286.484 44.0538 285.496C43.287 284.509 42.896 283.281 42.9506 282.032C42.9533 281.981 42.9756 281.933 43.0129 281.898C43.0502 281.863 43.0996 281.844 43.1505 281.845C43.2015 281.846 43.2501 281.867 43.2861 281.903C43.3222 281.939 43.3428 281.988 43.3437 282.039C43.2907 283.202 43.655 284.346 44.3709 285.264C45.0869 286.182 46.1072 286.813 47.2479 287.045C47.4957 287.095 47.3831 287.472 47.1367 287.422Z" fill="white"/>
<path d="M49.1373 298.028C51.2878 296.648 52.8393 294.508 53.4825 292.034C53.546 291.789 53.9229 291.901 53.8595 292.146C53.1854 294.718 51.5663 296.943 49.3253 298.374C49.1116 298.51 48.9248 298.164 49.1373 298.028Z" fill="white"/>
<path d="M50.6303 276.515C51.083 276.713 51.5778 276.795 52.07 276.754C52.5623 276.713 53.0368 276.551 53.4507 276.281C53.6626 276.142 53.8492 276.488 53.6387 276.626C53.18 276.922 52.6558 277.101 52.112 277.147C51.5682 277.194 51.0213 277.106 50.5191 276.892C50.4701 276.876 50.4291 276.842 50.4044 276.797C50.3797 276.751 50.3732 276.698 50.3862 276.648C50.4012 276.598 50.4352 276.556 50.4809 276.531C50.5266 276.507 50.5803 276.501 50.6303 276.515Z" fill="white"/>
<path d="M81.3314 284.574C81.2016 284.665 81.0718 284.755 80.9419 284.849C79.2028 286.075 77.5661 287.44 76.048 288.931C75.9288 289.044 75.8097 289.161 75.694 289.278C72.0748 292.909 69.161 297.181 67.1006 301.876C66.2824 303.745 65.6076 305.674 65.0819 307.646C64.3561 310.368 63.7857 313.378 62.2484 315.636C62.0907 315.873 61.9184 316.101 61.7325 316.317L47.2001 316.784C47.1665 316.768 47.1329 316.756 47.0992 316.74L46.5198 316.786C46.5398 316.682 46.5628 316.575 46.5828 316.471C46.5941 316.411 46.6087 316.351 46.6201 316.291C46.6287 316.251 46.6375 316.211 46.6429 316.174C46.6457 316.161 46.6487 316.147 46.6516 316.137C46.6571 316.1 46.666 316.067 46.6716 316.034C46.7984 315.435 46.9297 314.837 47.0653 314.238C47.0652 314.234 47.0652 314.234 47.0684 314.231C48.0584 309.659 49.5871 305.221 51.6224 301.009C51.6848 300.884 51.747 300.756 51.8161 300.631C52.7613 298.765 53.8573 296.98 55.0932 295.292C55.773 294.371 56.4989 293.484 57.2682 292.636C59.2603 290.448 61.584 288.587 64.1541 287.122C69.2779 284.201 75.2785 282.952 80.9028 284.455C81.0467 284.494 81.1875 284.532 81.3314 284.574Z" fill="#F0F0F0"/>
<path d="M81.3046 284.76C74.1142 286.43 67.6327 290.325 62.7806 295.89C61.7149 297.07 60.8416 298.41 60.193 299.862C59.6068 301.296 59.4153 302.861 59.6384 304.395C59.8177 305.829 60.1671 307.275 59.9948 308.728C59.8956 309.47 59.6406 310.183 59.2467 310.82C58.8527 311.457 58.3286 312.003 57.7088 312.423C56.1917 313.51 54.3747 313.986 52.5817 314.39C50.5909 314.839 48.5159 315.274 46.8843 316.579C46.6866 316.737 46.4528 316.421 46.6502 316.263C49.489 313.992 53.4016 314.324 56.5342 312.684C57.9959 311.919 59.2361 310.708 59.5505 309.034C59.8255 307.571 59.4665 306.079 59.2724 304.629C59.0329 303.136 59.1623 301.607 59.6495 300.176C60.2222 298.696 61.0424 297.324 62.075 296.119C64.3566 293.37 67.0561 290.997 70.0746 289.087C73.5075 286.887 77.2912 285.292 81.2619 284.369C81.5077 284.312 81.5488 284.703 81.3046 284.76Z" fill="white"/>
<path d="M64.2376 294.006C63.4148 293.065 62.9531 291.862 62.9351 290.612C62.9171 289.361 63.3439 288.145 64.1393 287.181C64.3009 286.986 64.6108 287.228 64.449 287.423C63.7066 288.32 63.3092 289.453 63.3283 290.617C63.3475 291.781 63.782 292.9 64.5534 293.772C64.7208 293.962 64.4041 294.195 64.2376 294.006Z" fill="white"/>
<path d="M59.4518 303.68C61.9995 303.873 64.5263 303.099 66.5286 301.511C66.7268 301.354 66.9607 301.67 66.7627 301.827C64.676 303.475 62.0447 304.276 59.394 304.069C59.1414 304.049 59.2005 303.66 59.4518 303.68Z" fill="white"/>
<path d="M73.5912 287.402C73.8337 287.833 74.1794 288.196 74.597 288.46C75.0147 288.724 75.4914 288.88 75.9842 288.914C76.2369 288.93 76.1775 289.319 75.9264 289.303C75.3821 289.263 74.8559 289.09 74.3938 288.799C73.9317 288.509 73.5477 288.109 73.2754 287.636C73.246 287.594 73.2339 287.542 73.2415 287.491C73.249 287.44 73.2758 287.393 73.3163 287.361C73.3582 287.33 73.4106 287.317 73.4621 287.325C73.5136 287.333 73.56 287.36 73.5912 287.402Z" fill="white"/>
<path d="M278.514 290.525C277.698 281.641 272.496 272.746 264.153 269.595C267.187 278.81 266.866 288.802 263.245 297.803C261.836 301.269 259.908 304.978 261.014 308.552C261.702 310.776 263.504 312.519 265.545 313.638C267.586 314.757 269.872 315.333 272.13 315.897L272.566 316.282C276.437 308.244 279.33 299.41 278.514 290.525Z" fill="#F0F0F0"/>
<path d="M264.064 269.759C268.8 275.424 271.631 282.438 272.156 289.804C272.297 291.388 272.187 292.984 271.832 294.533C271.436 296.032 270.647 297.397 269.546 298.487C268.54 299.524 267.391 300.468 266.654 301.732C266.286 302.384 266.061 303.107 265.992 303.853C265.924 304.599 266.013 305.351 266.255 306.059C266.813 307.841 267.977 309.316 269.165 310.718C270.485 312.276 271.88 313.872 272.397 315.897C272.46 316.143 272.837 316.031 272.774 315.786C271.874 312.263 268.551 310.171 267.036 306.975C266.33 305.484 266.068 303.77 266.824 302.244C267.486 300.91 268.67 299.935 269.698 298.894C270.788 297.846 271.604 296.548 272.077 295.111C272.51 293.585 272.681 291.996 272.581 290.412C272.414 286.842 271.687 283.322 270.426 279.978C269.009 276.155 266.948 272.602 264.333 269.473C264.171 269.279 263.903 269.567 264.064 269.759Z" fill="white"/>
<path d="M272.126 287.422C273.35 287.166 274.442 286.484 275.209 285.496C275.976 284.509 276.367 283.281 276.312 282.032C276.31 281.981 276.287 281.933 276.25 281.898C276.213 281.863 276.163 281.844 276.112 281.845C276.062 281.846 276.013 281.867 275.977 281.903C275.941 281.939 275.92 281.988 275.919 282.039C275.972 283.202 275.608 284.346 274.892 285.264C274.176 286.182 273.156 286.813 272.015 287.045C271.767 287.095 271.88 287.472 272.126 287.422Z" fill="white"/>
<path d="M270.126 298.028C267.975 296.648 266.424 294.508 265.78 292.034C265.717 291.789 265.34 291.901 265.403 292.146C266.077 294.718 267.697 296.943 269.938 298.374C270.151 298.51 270.338 298.164 270.126 298.028Z" fill="white"/>
<path d="M268.633 276.515C268.18 276.713 267.685 276.795 267.193 276.754C266.7 276.713 266.226 276.551 265.812 276.281C265.6 276.142 265.414 276.488 265.624 276.626C266.083 276.922 266.607 277.101 267.151 277.147C267.695 277.194 268.242 277.106 268.744 276.892C268.793 276.876 268.834 276.842 268.858 276.797C268.883 276.751 268.89 276.698 268.877 276.648C268.862 276.598 268.828 276.556 268.782 276.531C268.736 276.507 268.683 276.501 268.633 276.515Z" fill="white"/>
<path d="M237.931 284.574C238.061 284.665 238.191 284.755 238.321 284.849C240.06 286.075 241.697 287.44 243.215 288.931C243.334 289.044 243.453 289.161 243.569 289.278C247.188 292.909 250.102 297.181 252.162 301.876C252.98 303.745 253.655 305.674 254.181 307.646C254.907 310.368 255.477 313.378 257.014 315.636C257.172 315.873 257.344 316.101 257.53 316.317L272.063 316.784C272.096 316.768 272.13 316.756 272.164 316.74L272.743 316.786C272.723 316.682 272.7 316.575 272.68 316.471C272.669 316.411 272.654 316.351 272.643 316.291C272.634 316.251 272.625 316.211 272.62 316.174C272.617 316.161 272.614 316.147 272.611 316.137C272.606 316.1 272.597 316.067 272.591 316.034C272.464 315.435 272.333 314.837 272.198 314.238C272.198 314.234 272.198 314.234 272.194 314.231C271.204 309.659 269.676 305.221 267.64 301.009C267.578 300.884 267.516 300.756 267.447 300.631C266.502 298.765 265.406 296.98 264.17 295.292C263.49 294.371 262.764 293.484 261.995 292.636C260.002 290.448 257.679 288.587 255.109 287.122C249.985 284.201 243.984 282.952 238.36 284.455C238.216 284.494 238.075 284.532 237.931 284.574Z" fill="#F0F0F0"/>
<path d="M237.958 284.76C245.149 286.43 251.63 290.325 256.482 295.89C257.548 297.07 258.421 298.41 259.07 299.862C259.656 301.296 259.847 302.861 259.624 304.395C259.445 305.829 259.096 307.275 259.268 308.728C259.367 309.47 259.622 310.183 260.016 310.82C260.41 311.457 260.934 312.003 261.554 312.423C263.071 313.51 264.888 313.986 266.681 314.39C268.672 314.839 270.747 315.274 272.378 316.579C272.576 316.737 272.81 316.421 272.613 316.263C269.774 313.992 265.861 314.324 262.729 312.684C261.267 311.919 260.027 310.708 259.712 309.034C259.437 307.571 259.796 306.079 259.99 304.629C260.23 303.136 260.1 301.607 259.613 300.176C259.041 298.696 258.22 297.324 257.188 296.119C254.906 293.37 252.207 290.997 249.188 289.087C245.755 286.887 241.972 285.292 238.001 284.369C237.755 284.312 237.714 284.703 237.958 284.76Z" fill="white"/>
<path d="M255.025 294.006C255.848 293.065 256.31 291.862 256.328 290.612C256.346 289.361 255.919 288.145 255.124 287.181C254.962 286.986 254.652 287.228 254.814 287.423C255.556 288.32 255.954 289.453 255.935 290.617C255.915 291.781 255.481 292.9 254.71 293.772C254.542 293.962 254.859 294.195 255.025 294.006Z" fill="white"/>
<path d="M259.811 303.68C257.263 303.873 254.737 303.099 252.734 301.511C252.536 301.354 252.302 301.67 252.5 301.827C254.587 303.475 257.218 304.276 259.869 304.069C260.121 304.049 260.062 303.66 259.811 303.68Z" fill="white"/>
<path d="M245.672 287.402C245.429 287.833 245.084 288.196 244.666 288.46C244.248 288.724 243.772 288.88 243.279 288.914C243.026 288.93 243.085 289.319 243.337 289.303C243.881 289.263 244.407 289.09 244.869 288.799C245.331 288.509 245.715 288.109 245.988 287.636C246.017 287.594 246.029 287.542 246.021 287.491C246.014 287.44 245.987 287.393 245.947 287.361C245.905 287.33 245.852 287.317 245.801 287.325C245.749 287.333 245.703 287.36 245.672 287.402Z" fill="white"/>
<path d="M379 317.495C379 317.629 378.946 317.757 378.852 317.852C378.757 317.946 378.629 318 378.495 318H0.504911C0.371065 318 0.2427 317.947 0.148057 317.852C0.0534135 317.757 0.000244141 317.629 0.000244141 317.495C0.000244141 317.361 0.0534135 317.233 0.148057 317.138C0.2427 317.043 0.371065 316.99 0.504911 316.99H378.495C378.629 316.991 378.757 317.044 378.852 317.138C378.946 317.233 379 317.361 379 317.495Z" fill="#3F3D56"/>
<path d="M243.475 122.189C244.529 122.189 245.383 121.334 245.383 120.279C245.383 119.225 244.529 118.37 243.475 118.37C242.421 118.37 241.566 119.225 241.566 120.279C241.566 121.334 242.421 122.189 243.475 122.189Z" fill="#3F3D56"/>
<path d="M219.577 134.985L245.306 118.815C245.538 118.668 245.798 118.571 246.07 118.528C246.341 118.485 246.619 118.497 246.885 118.565C247.152 118.632 247.402 118.752 247.621 118.919C247.839 119.086 248.022 119.295 248.157 119.534C248.293 119.774 248.378 120.038 248.409 120.311C248.44 120.584 248.415 120.861 248.335 121.124C248.256 121.388 248.124 121.632 247.948 121.843C247.772 122.054 247.554 122.227 247.309 122.352L220.223 136.125C220.073 136.202 219.899 136.217 219.737 136.169C219.576 136.12 219.439 136.011 219.356 135.864C219.273 135.717 219.249 135.544 219.291 135.38C219.332 135.217 219.435 135.075 219.577 134.985Z" fill="#E4E4E4"/>
<path d="M167.962 169.805C167.759 169.503 167.653 169.147 167.658 168.784C167.664 168.421 167.78 168.068 167.991 167.772C168.426 167.189 169.006 166.729 169.673 166.438C171.05 165.737 172.532 165.268 174.062 165.05C175.224 164.885 176.492 164.833 177.394 164.081C178.289 163.333 178.789 161.936 179.949 161.82C181.071 161.707 181.933 162.935 183.058 163.012C184.444 163.106 185.352 161.482 186.701 161.149C187.604 160.927 188.533 161.32 189.38 161.704L194.464 164.012L197.069 165.194C197.98 165.607 199.006 166.164 199.178 167.149C199.414 168.502 197.91 169.457 196.623 169.937C187.437 173.329 177.343 173.33 168.156 169.941" fill="#F9A826"/>
<path d="M175.62 194.738C212.51 194.738 242.414 190.464 242.414 185.192C242.414 179.92 212.51 175.646 175.62 175.646C138.731 175.646 108.826 179.92 108.826 185.192C108.826 190.464 138.731 194.738 175.62 194.738Z" fill="#3F3D56"/>
<path d="M311.117 244.377H265.315C263.207 244.377 261.498 246.087 261.498 248.196C261.498 250.304 263.207 252.014 265.315 252.014H311.117C313.225 252.014 314.934 250.304 314.934 248.196C314.934 246.087 313.225 244.377 311.117 244.377Z" fill="#3F3D56"/>
<path d="M333.313 176.299L318.186 248.191L322.126 266.592L329.564 301.318V316.927C329.565 316.948 329.564 316.969 329.56 316.99C329.558 317.335 329.494 317.677 329.374 318H323.394C323.273 317.677 323.21 317.335 323.207 316.99C323.204 316.969 323.202 316.948 323.203 316.927V301.988L316.452 270.469L315.086 264.105L312.444 251.772L311.681 248.2V248.196L312.435 244.615L313.017 241.853L327.088 174.993C327.173 174.583 327.339 174.195 327.574 173.85C327.81 173.504 328.111 173.209 328.461 172.98C328.811 172.751 329.202 172.594 329.613 172.516C330.023 172.439 330.445 172.443 330.854 172.529C331.263 172.615 331.651 172.78 331.996 173.016C332.341 173.252 332.637 173.554 332.865 173.904C333.093 174.255 333.25 174.646 333.327 175.057C333.404 175.468 333.4 175.89 333.313 176.299Z" fill="#3F3D56"/>
<path d="M268.496 248.196V316.927C268.496 316.948 268.495 316.969 268.492 316.99C268.489 317.335 268.426 317.677 268.305 318H262.325C262.204 317.677 262.141 317.335 262.139 316.99C262.135 316.969 262.134 316.948 262.134 316.927V248.196C262.134 247.352 262.47 246.542 263.066 245.946C263.663 245.349 264.472 245.014 265.315 245.014C266.159 245.014 266.968 245.349 267.564 245.946C268.161 246.542 268.496 247.352 268.496 248.196Z" fill="#3F3D56"/>
<path d="M272.949 236.74H303.483C306.52 236.74 309.432 237.947 311.58 240.096C313.727 242.244 314.934 245.157 314.934 248.196H261.498C261.498 245.157 262.705 242.244 264.852 240.096C266.999 237.947 269.912 236.74 272.949 236.74Z" fill="#3F3D56"/>
<path d="M318.75 270.469H265.315C264.471 270.469 263.662 270.134 263.066 269.537C262.469 268.941 262.134 268.131 262.134 267.287C262.134 266.444 262.469 265.634 263.066 265.037C263.662 264.441 264.471 264.105 265.315 264.105H318.75C319.594 264.105 320.403 264.441 320.999 265.037C321.596 265.634 321.931 266.444 321.931 267.287C321.931 268.131 321.596 268.941 320.999 269.537C320.403 270.134 319.594 270.469 318.75 270.469Z" fill="#3F3D56"/>
<path d="M70.1955 252.13H124.093C126.201 252.13 127.91 250.42 127.91 248.311V247.154C127.91 245.045 126.201 243.336 124.093 243.336H70.1955C68.0875 243.336 66.3787 245.045 66.3787 247.154V248.311C66.3787 250.42 68.0875 252.13 70.1955 252.13Z" fill="#3F3D56"/>
<path d="M69.6404 247.784L68.6649 251.806L65.0856 266.537L63.5421 272.9L56.3748 302.421V315.229C56.3767 315.857 56.1906 316.47 55.8406 316.99C55.5654 317.411 55.1911 317.758 54.7507 318H51.6378C51.1974 317.758 50.8232 317.411 50.548 316.99C50.1978 316.47 50.0117 315.857 50.0135 315.229V301.657L57.978 268.861L63.118 247.682L45.6879 164.844C45.6016 164.435 45.5968 164.013 45.6736 163.603C45.7504 163.192 45.9074 162.8 46.1356 162.45C46.3637 162.1 46.6586 161.799 47.0034 161.563C47.3482 161.327 47.736 161.161 48.1448 161.076C48.5536 160.99 48.9753 160.985 49.3858 161.063C49.7962 161.14 50.1875 161.297 50.5371 161.526C50.8867 161.755 51.1878 162.05 51.4233 162.395C51.6587 162.74 51.8239 163.128 51.9093 163.537L68.0205 240.088L68.7627 243.618L69.6276 247.733L69.6404 247.784Z" fill="#3F3D56"/>
<path d="M126.697 247.733V315.23C126.699 315.857 126.513 316.47 126.163 316.99C125.888 317.411 125.513 317.758 125.073 318H121.956C121.518 317.756 121.145 317.41 120.87 316.99C120.52 316.47 120.334 315.857 120.336 315.23V247.733C120.336 246.889 120.671 246.08 121.268 245.483C121.864 244.886 122.673 244.551 123.517 244.551C124.36 244.551 125.169 244.886 125.766 245.483C126.362 246.08 126.697 246.889 126.697 247.733Z" fill="#3F3D56"/>
<path d="M127.91 247.733H66.3786V245.997C66.3786 244.493 66.6748 243.003 67.2503 241.613C67.8257 240.224 68.6691 238.961 69.7324 237.897C70.7957 236.833 72.0579 235.989 73.4472 235.414C74.8364 234.838 76.3254 234.542 77.8291 234.542H116.46C119.497 234.542 122.409 235.749 124.556 237.897C126.704 240.045 127.91 242.959 127.91 245.997L127.91 247.733Z" fill="#3F3D56"/>
<path d="M123.515 272.899H61.9836C61.1401 272.899 60.3311 272.564 59.7346 271.967C59.1381 271.371 58.803 270.561 58.803 269.717C58.803 268.873 59.1381 268.064 59.7346 267.467C60.3311 266.871 61.1401 266.535 61.9836 266.535H123.515C124.359 266.535 125.168 266.871 125.764 267.467C126.361 268.064 126.696 268.873 126.696 269.717C126.696 270.561 126.361 271.371 125.764 271.967C125.168 272.564 124.359 272.899 123.515 272.899Z" fill="#3F3D56"/>
<path d="M202.593 300.656L195.908 297.458L205.091 269.503L214.958 274.224L202.593 300.656Z" fill="#9E616A"/>
<path d="M247.898 298.124L240.71 299.899L230.294 272.386L240.904 269.767L247.898 298.124Z" fill="#9E616A"/>
<path d="M220.346 179.154C221.3 180.703 222.821 181.818 224.585 182.26C226.348 182.703 228.215 182.438 229.787 181.523C230.103 181.332 230.403 181.114 230.683 180.874L251.818 193.007L250.9 180.552L230.971 170.939C229.886 169.849 228.471 169.15 226.947 168.951C225.423 168.753 223.876 169.066 222.548 169.841C221.784 170.3 221.119 170.908 220.593 171.628C220.068 172.347 219.691 173.165 219.486 174.033C219.28 174.901 219.251 175.801 219.399 176.68C219.546 177.56 219.869 178.401 220.346 179.154Z" fill="#9E616A"/>
<path d="M242.731 188.438L246.467 190.716L263.246 200.952C264.348 201.642 265.575 202.108 266.858 202.323C268.14 202.538 269.452 202.498 270.718 202.205C271.985 201.913 273.182 201.373 274.24 200.618C275.298 199.862 276.197 198.906 276.886 197.802C278.128 195.755 278.568 193.319 278.12 190.966L270.662 153.693C270.387 152.23 269.799 150.844 268.938 149.629C268.078 148.414 266.965 147.399 265.677 146.654C264.388 145.909 262.954 145.451 261.472 145.311C259.991 145.172 258.496 145.354 257.091 145.845C254.73 146.675 252.773 148.374 251.619 150.597C250.466 152.819 250.202 155.397 250.881 157.807L258.679 184.259L246.726 178.684L242.731 188.438Z" fill="#E6E6E6"/>
<path d="M233.898 290.414L222.395 267.335L222.397 267.282L223.532 224.95C223.547 224.574 223.577 224.196 223.623 223.823C223.824 222.126 224.36 220.486 225.201 218.998C226.042 217.51 227.17 216.205 228.52 215.157C229.814 214.145 231.296 213.401 232.879 212.967C234.463 212.534 236.118 212.42 237.746 212.633L270.638 216.892L271.779 212.226L271.991 212.148L303.507 200.593L303.689 200.889C307.816 207.608 310.702 221.029 311.488 224.982L311.499 225.039C311.516 225.122 311.526 225.173 311.529 225.187C313.152 231.934 306.448 243.109 299.77 244.789C285.702 248.376 273.122 245.578 258.554 242.337C253.331 241.175 247.932 239.974 241.985 238.935L242.162 242.436C242.307 245.131 242.867 247.788 243.821 250.312C244.882 253.418 245.719 255.872 243.948 260.989L243.092 263.463C243.536 264.692 243.689 266.007 243.538 267.305C243.388 268.603 242.938 269.848 242.224 270.943L242.052 271.206L249.638 290.41L233.898 290.414Z" fill="#2F2E41"/>
<path d="M214.998 280.208L201.281 278.932L206.141 263.384C207.144 253.232 209.671 243.289 213.636 233.89L220.265 218.175C220.28 217.825 220.31 217.473 220.353 217.128C220.553 215.431 221.089 213.79 221.93 212.303C222.771 210.815 223.9 209.509 225.25 208.462C226.543 207.451 228.025 206.706 229.609 206.273C231.193 205.84 232.847 205.726 234.475 205.939L267.319 210.191L268.75 198.179L300.274 193.959L300.418 194.194C305.928 203.163 309.427 210.185 311.427 216.291C311.528 216.603 311.617 216.92 311.693 217.237C313.327 224.029 309.249 230.915 302.603 232.586C285.667 236.906 265.302 236.786 238.525 232.207L225.566 263.06C224.327 266.006 222.794 268.82 220.989 271.458L214.998 280.208Z" fill="#2F2E41"/>
<path d="M262.846 124.454C271.622 124.454 278.736 117.178 278.736 108.203C278.736 99.2286 271.622 91.953 262.846 91.953C254.071 91.953 246.957 99.2286 246.957 108.203C246.957 117.178 254.071 124.454 262.846 124.454Z" fill="#9E616A"/>
<path d="M267.434 210.758L265.154 202.587L264.594 198.556L261.317 198.666L254.885 183.815L252.387 179.899C251.878 179.362 251.417 178.847 251.003 178.351C248.4 175.408 246.313 172.046 244.83 168.407C243.791 165.793 243.181 163.028 243.023 160.219C242.557 151.921 246.053 143.142 253.713 133.382C253.587 133.037 253.503 132.677 253.463 132.312C253.326 131.126 253.663 129.934 254.4 128.996C255.137 128.057 256.214 127.448 257.398 127.3L264.785 126.47C265.36 126.405 265.942 126.454 266.497 126.616C267.052 126.778 267.569 127.049 268.018 127.413C268.488 127.789 268.877 128.255 269.165 128.783C269.452 129.312 269.632 129.892 269.693 130.491C269.792 131.417 269.609 132.351 269.17 133.172C272.936 133.65 276.483 135.205 279.388 137.65C282.292 140.095 284.43 143.326 285.544 146.956C289.965 155.211 293.488 163.917 296.053 172.924C296.559 174.688 296.334 176.505 296.116 178.263C295.915 179.887 295.707 181.566 296.057 183.239C296.413 184.941 297.269 186.649 298.175 188.456C299.213 190.527 300.286 192.668 300.576 194.85L300.597 195.003L267.434 210.758Z" fill="#E4E4E4"/>
<path opacity="0.2" d="M245.026 168.327C246.503 171.945 248.578 175.287 251.165 178.215C251.609 178.744 252.076 179.264 252.566 179.785L255.08 183.731C264.345 176.783 271.853 149.425 271.853 149.425L261.398 147.391L245.026 168.327Z" fill="black"/>
<path d="M238.697 125.972C239.613 127.545 239.878 129.413 239.438 131.18C238.997 132.946 237.885 134.47 236.338 135.429C236.021 135.618 235.688 135.782 235.344 135.917L236.084 160.284L225.536 153.642L226.45 131.52C226.001 130.048 226.052 128.469 226.595 127.029C227.138 125.589 228.142 124.369 229.451 123.559C230.213 123.098 231.06 122.794 231.941 122.666C232.823 122.538 233.721 122.588 234.583 122.812C235.445 123.037 236.253 123.433 236.96 123.975C237.667 124.518 238.257 125.197 238.697 125.972Z" fill="#9E616A"/>
<path d="M237.011 151.086L225.411 152.736L225.91 176.768C225.939 178.482 226.406 180.16 227.266 181.643C228.126 183.127 229.35 184.365 230.824 185.241C232.623 186.3 234.719 186.746 236.793 186.51C238.868 186.275 240.81 185.371 242.327 183.935L269.713 157.582C271.639 155.754 272.793 153.256 272.935 150.603C273.077 147.95 272.198 145.343 270.478 143.318C269.627 142.31 268.582 141.484 267.405 140.888C266.228 140.291 264.944 139.938 263.628 139.847C262.312 139.757 260.992 139.933 259.745 140.363C258.498 140.793 257.35 141.469 256.369 142.352C256.099 142.594 255.841 142.851 255.598 143.12L237.515 163.932L237.011 151.086Z" fill="#E6E6E6"/>
<path d="M139.993 307.834L148.227 307.833L152.144 276.062L139.992 276.063L139.993 307.834Z" fill="#FFB6B6"/>
<path d="M93.3254 124.926C102.401 124.926 109.758 117.565 109.758 108.486C109.758 99.4065 102.401 92.0463 93.3254 92.0463C84.2498 92.0463 76.8926 99.4065 76.8926 108.486C76.8926 117.565 84.2498 124.926 93.3254 124.926Z" fill="#FFB6B6"/>
<path d="M150.914 298.047H139.255L136.282 294.061L135.478 290.305L134.785 289.635C133.846 288.733 133.239 287.54 133.062 286.249C132.885 284.959 133.149 283.646 133.811 282.524L125.361 243.084C123.148 242.889 98.1898 240.657 80.8407 237.585C76.4007 236.799 72.9341 234.64 70.5372 231.168C64.6476 222.635 67.1705 208.83 67.1967 208.691L67.2258 208.537L67.3814 208.52L107.905 203.969L107.96 203.995C109.304 204.633 140.954 219.664 146.126 224.838C148.462 227.175 153.673 241.057 154.839 255.816C155.048 258.459 154.296 261.152 153.569 263.756C152.888 266.192 152.185 268.712 152.324 271.093C152.538 274.768 152.742 278.623 152.928 282.551C152.958 283.177 153.429 283.825 153.885 284.451C154.361 285.105 154.811 285.723 154.84 286.37C155.117 292.642 151.019 297.914 150.977 297.966L150.914 298.047Z" fill="#2F2E41"/>
<path d="M153.569 152.273C152.686 152.031 151.761 151.986 150.859 152.141C149.957 152.296 149.1 152.647 148.348 153.169C147.596 153.691 146.968 154.372 146.508 155.163C146.047 155.954 145.766 156.837 145.683 157.749L132.03 162.018L132.599 170.951L151.796 164.652C153.337 164.689 154.837 164.159 156.013 163.164C157.19 162.168 157.96 160.776 158.179 159.25C158.397 157.724 158.048 156.171 157.199 154.885C156.349 153.599 155.058 152.67 153.569 152.273Z" fill="#FFB6B6"/>
<path d="M144.66 167.056L134.456 170.92L134.195 171.426C133.569 172.64 132.487 173.556 131.186 173.972C129.886 174.388 128.473 174.27 127.26 173.645L104.323 182.329C104.323 182.329 94.08 172.075 86.7874 162.923L89.2728 147.629C89.8485 144.081 91.072 140.668 92.8822 137.563C107.838 140.844 116.423 161.76 116.423 161.76L143.378 156.615L144.66 167.056Z" fill="#F9A826"/>
<path d="M90.9903 124.047C86.8763 125.158 82.3409 123.68 79.1303 120.877C75.9198 118.074 73.9115 114.102 72.7543 109.999C71.9068 106.994 71.505 103.659 72.8424 100.837C74.1798 98.0165 77.7791 96.1132 80.556 97.5382C78.843 95.5415 79.6988 92.2391 81.6995 90.531C83.7002 88.8229 86.4475 88.3332 89.0641 88.0655C92.8615 87.677 96.7839 87.6335 100.397 88.8643C104.011 90.095 107.294 92.7858 108.425 96.4331C109.58 96.9711 110.881 97.1107 112.124 96.8299C113.366 96.5492 114.481 95.8641 115.293 94.8818C115.502 96.0099 115.334 97.1757 114.815 98.1986C114.295 99.2216 113.453 100.045 112.419 100.541L117.955 98.7449C118.907 100.761 117.239 103.257 115.105 103.902C112.972 104.548 110.669 103.842 108.644 102.909C106.619 101.977 104.657 100.797 102.458 100.433C100.259 100.07 97.6758 100.777 96.6585 102.761C96.1257 103.8 96.0979 105.017 95.7886 106.143C95.4793 107.27 94.6957 108.437 93.5318 108.529C92.7965 108.588 92.0766 108.196 91.3433 108.276C90.4342 108.375 89.7384 109.199 89.4963 110.081C89.3138 110.98 89.3116 111.907 89.4898 112.807L90.8961 123.561" fill="#2F2E41"/>
<path d="M70.6317 233.132C70.6286 233.132 70.6255 233.132 70.6225 233.131L70.4925 233.109L70.4549 232.982C69.9825 231.393 69.3813 229.765 68.7999 228.192C67.9436 226.012 67.2207 223.783 66.6349 221.515C66.174 219.348 65.8543 217.152 65.6781 214.943C65.5159 213.339 65.3482 211.681 65.063 210.048C64.9363 209.323 65.4162 208.637 65.8803 207.973C66.3107 207.357 66.7171 206.776 66.6318 206.226C66.5446 205.663 65.9211 205.046 65.3182 204.448C64.6572 203.793 63.9738 203.116 63.877 202.403C62.5598 192.679 61.9466 182.872 62.0424 173.06C62.1786 159.483 62.7919 150.229 63.8653 145.554C66.7515 132.984 80.0862 130.69 82.1734 130.407C82.3957 129.815 82.7375 129.275 83.1775 128.82C83.6176 128.366 84.1464 128.007 84.7311 127.765C85.3158 127.524 85.9439 127.406 86.5762 127.418C87.2086 127.43 87.8317 127.572 88.4068 127.836L97.8813 132.175C99.8031 133.058 101.523 134.327 102.934 135.903C104.345 137.48 105.416 139.329 106.082 141.338L107.49 145.63L108.195 174.446L104.288 194.738L111.921 206.193C71.237 228.539 70.7628 233.132 70.6317 233.132Z" fill="#F9A826"/>
<path d="M135.563 304.632L138.24 304.632L148.691 300.38L154.293 304.632H154.293C157.459 304.632 160.495 305.89 162.733 308.129C164.971 310.368 166.229 313.406 166.229 316.572V316.96L135.564 316.962L135.563 304.632Z" fill="#2F2E41"/>
<path d="M156.987 172.836C156.198 172.372 155.317 172.088 154.406 172.002C153.495 171.916 152.576 172.031 151.714 172.339C150.852 172.646 150.068 173.139 149.417 173.783C148.767 174.427 148.265 175.205 147.947 176.064L133.653 176.622L131.727 183.283L152.048 184.323C153.526 184.761 155.112 184.642 156.507 183.988C157.902 183.334 159.009 182.19 159.618 180.774C160.227 179.358 160.295 177.768 159.811 176.305C159.326 174.842 158.321 173.608 156.987 172.836Z" fill="#FFB6B6"/>
<path d="M145.246 185.042L130.563 184.859L128.704 184.834L98.8309 184.457C98.8309 184.457 90.7186 176.714 83.6548 168.743L84.6449 161.579C85.6106 154.548 89.0969 148.107 94.455 143.456C104.572 150.219 110.439 163.605 110.439 163.605L120.277 168.009C127.2 168.319 133.946 170.296 139.942 173.771L143.177 175.646L145.246 185.042Z" fill="#F9A826"/>
<path d="M253.143 311.676L248.258 312.882L246.247 308.483L245.152 313.649L232.195 316.848C231.574 317.001 230.92 316.952 230.329 316.707C229.738 316.463 229.24 316.035 228.909 315.488C228.578 314.94 228.43 314.301 228.488 313.664C228.545 313.026 228.805 312.424 229.229 311.945L237.813 302.241L236.662 297.576L247.706 295.538L253.143 311.676Z" fill="#2F2E41"/>
<path d="M201.387 313.184L196.728 311.282L197.692 306.542L193.766 310.072L181.41 305.027C180.817 304.785 180.318 304.36 179.984 303.814C179.65 303.268 179.5 302.63 179.554 301.992C179.609 301.354 179.866 300.751 180.287 300.269C180.709 299.788 181.273 299.454 181.898 299.317L194.547 296.528L196.362 292.08L206.489 296.938L201.387 313.184Z" fill="#2F2E41"/>
<path d="M185.162 183.495H181.345C177.242 183.49 173.307 181.857 170.405 178.954C167.503 176.051 165.871 172.115 165.866 168.009V167.797H200.642V168.009C200.637 172.115 199.005 176.051 196.103 178.954C193.201 181.857 189.266 183.49 185.162 183.495Z" fill="#E4E4E4"/>
<path d="M181.345 162.282C181.345 163.336 179.437 164.191 179.437 164.191C179.437 164.191 177.529 163.336 177.529 162.282C177.529 161.227 179.437 160.373 179.437 160.373C179.437 160.373 181.345 161.227 181.345 162.282Z" fill="#3F3D56"/>
<path d="M192.796 162.282C192.796 163.336 190.887 164.191 190.887 164.191C190.887 164.191 188.979 163.336 188.979 162.282C188.979 161.227 190.887 160.373 190.887 160.373C190.887 160.373 192.796 161.227 192.796 162.282Z" fill="#3F3D56"/>
<path d="M185.162 166.1C185.162 167.155 183.254 168.009 183.254 168.009C183.254 168.009 181.345 167.155 181.345 166.1C181.345 165.046 183.254 164.191 183.254 164.191C183.254 164.191 185.162 165.046 185.162 166.1Z" fill="#3F3D56"/>
<path d="M171.803 158.251C172.857 158.251 173.712 157.396 173.712 156.342C173.712 155.288 172.857 154.433 171.803 154.433C170.749 154.433 169.895 155.288 169.895 156.342C169.895 157.396 170.749 158.251 171.803 158.251Z" fill="#3F3D56"/>
<path d="M144.049 152.239L174.147 156.398C174.42 156.435 174.681 156.528 174.917 156.669C175.153 156.811 175.357 156.999 175.518 157.222C175.679 157.445 175.793 157.698 175.853 157.966C175.914 158.235 175.919 158.512 175.869 158.783C175.819 159.053 175.715 159.311 175.563 159.54C175.411 159.769 175.214 159.964 174.984 160.115C174.754 160.266 174.496 160.368 174.225 160.417C173.955 160.465 173.677 160.458 173.41 160.395L143.811 153.528C143.646 153.489 143.503 153.389 143.411 153.248C143.318 153.107 143.283 152.936 143.314 152.77C143.345 152.604 143.438 152.456 143.575 152.357C143.712 152.258 143.881 152.216 144.049 152.239Z" fill="#E4E4E4"/>
<path d="M180.624 57.3662V0H176.807V57.3662C171.592 57.8422 166.743 60.2511 163.213 64.1199C159.682 67.9888 157.724 73.0382 157.723 78.277V84.0046H171.082C171.082 86.03 171.886 87.9725 173.318 89.4047C174.749 90.8368 176.691 91.6414 178.716 91.6414C180.74 91.6414 182.682 90.8368 184.113 89.4047C185.545 87.9725 186.349 86.03 186.349 84.0046H199.708V78.277C199.707 73.0382 197.749 67.9888 194.219 64.1199C190.688 60.2511 185.839 57.8422 180.624 57.3662Z" fill="#F0F0F0"/>
<path d="M229.765 43.0247V0H226.903V43.0247C222.991 43.3817 219.355 45.1883 216.707 48.09C214.058 50.9916 212.59 54.7786 212.59 58.7078V63.0035H222.609C222.609 64.5225 223.212 65.9794 224.286 67.0535C225.359 68.1276 226.815 68.7311 228.334 68.7311C229.852 68.7311 231.309 68.1276 232.382 67.0535C233.456 65.9794 234.059 64.5225 234.059 63.0035H244.078V58.7078C244.078 54.7786 242.609 50.9916 239.961 48.09C237.313 45.1883 233.676 43.3817 229.765 43.0247Z" fill="#F0F0F0"/>
<path d="M133.073 43.0247V0H130.21V43.0247C126.299 43.3817 122.662 45.1883 120.014 48.09C117.366 50.9916 115.898 54.7786 115.897 58.7078V63.0035H125.916C125.916 64.5225 126.52 65.9794 127.593 67.0535C128.667 68.1276 130.123 68.7311 131.642 68.7311C133.16 68.7311 134.616 68.1276 135.69 67.0535C136.764 65.9794 137.367 64.5225 137.367 63.0035H147.386V58.7078C147.385 54.7786 145.917 50.9916 143.269 48.09C140.621 45.1883 136.984 43.3817 133.073 43.0247Z" fill="#F0F0F0"/>
<path d="M305.365 101.156C302.664 98.0048 301.38 93.8242 299.22 90.2461C297.061 86.668 293.304 83.4656 289.335 84.2982C286.598 84.8723 284.484 87.2878 283.413 89.9809C282.343 92.6739 282.142 95.6438 281.954 98.5533C282.021 92.5742 278.083 86.7778 272.659 84.87C267.235 82.9621 260.744 85.0903 257.336 89.8937C255.849 88.5146 253.907 87.7293 251.88 87.6868C249.852 87.6442 247.88 88.3473 246.336 89.6627C243.287 92.3886 242.612 97.5767 244.854 101.054C247.096 104.53 251.952 105.826 255.515 103.897L256.774 105.057C256.065 107.537 257.44 110.468 259.752 111.402C261.626 112.159 264.272 112.033 264.973 114.001C265.464 115.376 264.547 116.843 263.573 117.9C262.599 118.956 261.442 120.047 261.325 121.509C261.148 123.715 263.427 125.261 265.498 125.726C270.493 126.848 276.035 124.534 278.913 120.125C278.969 120.04 279.029 119.954 279.094 119.869C280.709 117.803 281.886 115.429 282.553 112.892C283.22 110.355 283.364 107.709 282.974 105.115C282.812 104.096 282.975 103.338 283.677 103.097C286.713 102.053 295.219 104.243 297.793 106.222C300.368 108.201 302.429 110.82 304.909 112.926C307.388 115.033 310.548 116.658 313.696 116.084C316.218 115.625 318.363 113.794 319.806 111.585C321.249 109.376 322.079 106.801 322.823 104.242C317.247 107.464 309.616 106.115 305.365 101.156Z" fill="#2F2E41"/>
</g>
<defs>
<clipPath id="clip0_12_109">
<rect width="379" height="318" fill="white"/>
</clipPath>
</defs>
</svg>
