<svg width="37" height="37" viewBox="0 0 37 37" fill="none" xmlns="http://www.w3.org/2000/svg">
<path d="M33.6169 15.4807H32.375V15.4167H18.5V21.5834H27.2128C25.9417 25.1731 22.5261 27.75 18.5 27.75C13.3917 27.75 9.25004 23.6084 9.25004 18.5C9.25004 13.3917 13.3917 9.25004 18.5 9.25004C20.858 9.25004 23.0033 10.1396 24.6366 11.5926L28.9972 7.232C26.2438 4.66589 22.5608 3.08337 18.5 3.08337C9.98619 3.08337 3.08337 9.98619 3.08337 18.5C3.08337 27.0139 9.98619 33.9167 18.5 33.9167C27.0139 33.9167 33.9167 27.0139 33.9167 18.5C33.9167 17.4664 33.8103 16.4573 33.6169 15.4807Z" fill="#FFC107"/>
<path d="M4.86084 11.3244L9.92599 15.039C11.2965 11.6458 14.6157 9.25004 18.5 9.25004C20.8579 9.25004 23.0032 10.1396 24.6366 11.5926L28.9972 7.232C26.2438 4.66589 22.5607 3.08337 18.5 3.08337C12.5784 3.08337 7.44313 6.42648 4.86084 11.3244Z" fill="#FF3D00"/>
<path d="M18.5 33.9167C22.4821 33.9167 26.1004 32.3928 28.8361 29.9145L24.0646 25.8769C22.4648 27.0936 20.5099 27.7516 18.5 27.75C14.4901 27.75 11.0853 25.1932 9.80264 21.625L4.77527 25.4984C7.32673 30.4911 12.5083 33.9167 18.5 33.9167Z" fill="#4CAF50"/>
<path d="M33.6168 15.4806H32.375V15.4166H18.5V21.5833H27.2127C26.6047 23.2918 25.5095 24.7847 24.0623 25.8776L24.0646 25.8761L28.8361 29.9137C28.4985 30.2205 33.9167 26.2083 33.9167 18.5C33.9167 17.4663 33.8103 16.4573 33.6168 15.4806Z" fill="#1976D2"/>
</svg>
