<svg width="37" height="37" viewBox="0 0 37 37" fill="none" xmlns="http://www.w3.org/2000/svg">
<path d="M34.6258 9.24996C33.4387 9.78954 32.1591 10.1441 30.8333 10.3137C32.19 9.49663 33.2383 8.20163 33.7316 6.64454C32.4521 7.41538 31.0337 7.95496 29.5383 8.26329C28.3204 6.93746 26.6091 6.16663 24.6666 6.16663C21.0437 6.16663 18.0837 9.12663 18.0837 12.7804C18.0837 13.3045 18.1454 13.8133 18.2533 14.2912C12.765 14.0137 7.8779 11.3775 4.62498 7.38454C4.05456 8.35579 3.73081 9.49663 3.73081 10.6991C3.73081 12.9962 4.88706 15.0312 6.6754 16.1875C5.58081 16.1875 4.56331 15.8791 3.66915 15.4166V15.4629C3.66915 18.6695 5.95081 21.352 8.97248 21.9533C8.00235 22.2188 6.98388 22.2557 5.99706 22.0612C6.41579 23.3755 7.23585 24.5254 8.34196 25.3495C9.44808 26.1735 10.7846 26.6302 12.1637 26.6554C9.82599 28.5061 6.92822 29.5064 3.94665 29.492C3.42248 29.492 2.89831 29.4612 2.37415 29.3995C5.30331 31.2804 8.78748 32.375 12.5183 32.375C24.6666 32.375 31.3421 22.2925 31.3421 13.5512C31.3421 13.2583 31.3421 12.9808 31.3266 12.6879C32.6216 11.7629 33.7316 10.5912 34.6258 9.24996Z" fill="#1DA1F2"/>
</svg>
